<svg xmlns="http://www.w3.org/2000/svg" width="66.502" height="66.474" viewBox="0 0 66.502 66.474">
  <g id="_6xGfPo" data-name="6xGfPo" transform="translate(-553.021 -251.875)">
    <g id="Grupo_23" data-name="Grupo 23" transform="translate(553.021 251.875)">
      <path id="Trazado_34" data-name="Trazado 34" d="M586.324,251.875h29.349c2.543,0,3.849,1.3,3.849,3.824q0,19.511,0,39.021a3.325,3.325,0,0,1-2.511,3.554,5.677,5.677,0,0,1-1.352.109q-8.9.01-17.791,0a5.8,5.8,0,0,0-4.182,1.448,5.262,5.262,0,0,0-1.587,5.721,5.129,5.129,0,0,0,4.576,3.839,2.017,2.017,0,0,1,2.01,1.619c.534,1.868,1.214,3.694,1.825,5.541.387,1.169-.067,1.792-1.306,1.792q-12.921,0-25.843,0c-1.231,0-1.681-.625-1.294-1.8.623-1.888,1.3-3.759,1.868-5.663a1.8,1.8,0,0,1,1.784-1.46,5.286,5.286,0,0,0,4.473-3.1,5.521,5.521,0,0,0-4.344-7.855c-.646-.053-1.3-.083-1.943-.083-5.671-.006-11.342-.055-17.012.019a3.593,3.593,0,0,1-3.871-3.9c.048-12.921.023-25.841.024-38.762q0-3.875,3.865-3.873ZM555.24,289.5h62.086v-.748q0-16.52,0-33.04c0-1.305-.34-1.641-1.662-1.641H556.916c-1.352,0-1.676.328-1.676,1.693q0,16.488,0,32.975Zm.017,2.261c0,1.184-.037,2.306.015,3.424a1.01,1.01,0,0,0,1.018.991c.237.021.475.02.713.02q29.282,0,58.565,0a1.7,1.7,0,0,0,.767-.046c.346-.2.864-.494.888-.784.1-1.189.042-2.392.042-3.6Zm25.423,6.655c.142.19.209.294.289.387a7.414,7.414,0,0,1,1.514,7.691,7.558,7.558,0,0,1-6.041,5.1c-.172.034-.431.119-.475.242-.495,1.4-.956,2.81-1.446,4.278h23.518c-.443-1.335-.881-2.616-1.287-3.908a.825.825,0,0,0-.743-.65,7.747,7.747,0,0,1-4.467-12.7c.1-.119.182-.253.316-.443Z" transform="translate(-553.021 -251.875)" fill="#006953"/>
      <path id="Trazado_35" data-name="Trazado 35" d="M610.962,294.853a3.551,3.551,0,0,1,3.2-.569.69.69,0,0,0,.53-.231q5.328-5.682,10.624-11.395a.936.936,0,0,0,.142-.778,3.3,3.3,0,0,1,5.364-3.511,3.3,3.3,0,0,1,.675,3.979,3.254,3.254,0,0,1-3.74,1.629.763.763,0,0,0-.893.255q-5.236,5.635-10.5,11.245a.774.774,0,0,0-.193.905,3.168,3.168,0,0,1-.938,3.537,3.261,3.261,0,0,1-3.634.484,3.312,3.312,0,0,1-1.854-3.239.863.863,0,0,0-.343-.642c-3.475-2.109-6.966-4.191-10.446-6.292a.648.648,0,0,0-.807.021,3.016,3.016,0,0,1-2.8.291.709.709,0,0,0-.853.176q-4.522,4.193-9.067,8.361a.718.718,0,0,0-.216.846,3.295,3.295,0,0,1-5.623,3.046,3.322,3.322,0,0,1-.306-4.079,3.219,3.219,0,0,1,3.83-1.229.711.711,0,0,0,.847-.194q4.523-4.192,9.07-8.357a.778.778,0,0,0,.2-.905,3.3,3.3,0,1,1,6.415-1.534.872.872,0,0,1,.057.381c-.234.972.4,1.338,1.1,1.751,3.277,1.933,6.534,3.9,9.8,5.858C610.721,294.728,610.837,294.786,610.962,294.853Zm-28.9,4.791a1.122,1.122,0,0,0-1.138,1.086,1.149,1.149,0,0,0,1.112,1.122,1.108,1.108,0,0,0,1.088-1.064A1.089,1.089,0,0,0,582.061,299.644Zm14.364-13.3a1.1,1.1,0,0,0-.006,2.2,1.1,1.1,0,1,0,.006-2.2Zm17.733,11.065a1.116,1.116,0,0,0-1.119-1.1,1.165,1.165,0,0,0-1.09,1.084,1.116,1.116,0,0,0,1.1,1.12A1.078,1.078,0,0,0,614.158,297.411Zm14.453-17.726a1.113,1.113,0,0,0-1.125,1.094,1.072,1.072,0,0,0,1.03,1.106,1.1,1.1,0,0,0,1.169-1.043A1.145,1.145,0,0,0,628.611,279.686Z" transform="translate(-572.043 -270.83)" fill="#006953"/>
    </g>
  </g>
</svg>
