<svg xmlns="http://www.w3.org/2000/svg" width="70.953" height="61.522" viewBox="0 0 70.953 61.522">
  <g id="Oikby7" transform="translate(-532.052 -261.803)">
    <g id="Grupo_12" data-name="Grupo 12" transform="translate(532.052 261.803)">
      <path id="Trazado_27" data-name="Trazado 27" d="M586.445,309.156H572.277v7.053c1.081,0,2.135.01,3.19,0a5.984,5.984,0,0,1,4.207,1.474A5.731,5.731,0,0,1,581.687,322a1.163,1.163,0,0,1-1.083,1.283,4.221,4.221,0,0,1-.622.021q-21.962,0-43.924,0c-2.118,0-3.552-1.047-3.922-2.877a5.616,5.616,0,0,1-.081-1.1q-.006-14.928,0-29.855c0-2.577,1.4-3.983,3.969-4,.225,0,.449,0,.752,0v-.88q0-8.243,0-16.486A6.038,6.038,0,0,1,539.192,263a6.424,6.424,0,0,1,4.035-1.19q20.4,0,40.806,0c2.679,0,5.358-.012,8.036,0a5.9,5.9,0,0,1,5.985,4.487,7.782,7.782,0,0,1,.214,1.986q.021,11.672.009,23.344v.928c.392,0,.751-.008,1.109,0a3.521,3.521,0,0,1,3.6,3.6q.029,11.776,0,23.552a3.483,3.483,0,0,1-3.55,3.579q-4.71.072-9.422,0a3.527,3.527,0,0,1-3.568-3.841c-.02-3.14-.005-6.281-.005-9.421Zm9.469-16.6v-.691q0-11.877,0-23.754a3.627,3.627,0,0,0-3.99-3.936q-24.381,0-48.761,0c-2.583,0-4.02,1.448-4.021,4.044q0,8.241,0,16.482c0,.244.02.487.033.772h.9q8.138,0,16.277,0a2.766,2.766,0,0,1,1.1.064c.784.366,1.194-.067,1.682-.558Q564.5,279.576,569.9,274.2c.646-.645,1.381-.7,1.884-.17s.418,1.184-.2,1.832c-.112.117-.227.23-.342.344q-5.363,5.362-10.732,10.719a.842.842,0,0,0-.283,1.062,4.234,4.234,0,0,1,.211,1.493c.02,2.331.009,4.663.009,6.995v.75h25.968c.012-.25.028-.454.031-.659.035-2.662,1.413-4.012,4.1-4.013Zm-37.874,23.621c.014-.269.033-.472.033-.675q0-13.017,0-26.033c0-1.251-.395-1.629-1.675-1.629q-10.11,0-20.22,0c-1.419,0-1.762.34-1.762,1.747q0,12.912,0,25.825v.766Zm42.565,0c.014-.207.031-.344.031-.481q0-9.627,0-19.254c0-1.085-.432-1.519-1.512-1.522q-4.295-.01-8.589,0c-1.357,0-1.711.356-1.712,1.728q0,9.384,0,18.769c0,.244.024.489.038.761ZM586.4,299.691H560.5v7h25.9ZM534.486,318.6c-.253,1.861.15,2.337,1.919,2.337h19.789c1.639,0,2.181-.706,1.77-2.337Zm44.6,2.3a3.528,3.528,0,0,0-.191-.5,3.437,3.437,0,0,0-3.128-1.823q-7.446-.014-14.892,0a2.642,2.642,0,0,0-.381.053l-.18,2.27Zm-13.892-4.75h4.66v-7H565.2Zm35.44,2.465H588.821c0,.333-.008.627,0,.92.031.953.451,1.393,1.415,1.4q4.5.02,8.995,0c.947,0,1.377-.472,1.4-1.423C600.642,319.237,600.636,318.963,600.636,318.618Zm-40.161-2.466h2.3v-7h-2.3Z" transform="translate(-532.052 -261.803)" fill="#006953"/>
      <path id="Trazado_28" data-name="Trazado 28" d="M653.252,318.6c-1.114.014-1.694-.933-1.262-1.71a3.033,3.033,0,0,1,.522-.639q5.5-5.511,11.018-11.013a2.865,2.865,0,0,1,.638-.522,1.08,1.08,0,0,1,1.386.222,1.068,1.068,0,0,1,.171,1.339,2.765,2.765,0,0,1-.479.585q-5.554,5.56-11.121,11.107A5.7,5.7,0,0,1,653.252,318.6Z" transform="translate(-618.608 -292.693)" fill="#006953"/>
      <path id="Trazado_29" data-name="Trazado 29" d="M650.666,281.2c-.736,0-1.473.017-2.209-.006a1.172,1.172,0,1,1-.058-2.34q2.311-.062,4.626,0a1.156,1.156,0,0,1,1.224,1.216,1.175,1.175,0,0,1-1.3,1.13C652.185,281.212,651.426,281.2,650.666,281.2Z" transform="translate(-615.249 -274.098)" fill="#006953"/>
      <path id="Trazado_30" data-name="Trazado 30" d="M590.679,398.814a5.486,5.486,0,0,1-.612,1.037q-2.37,2.422-4.786,4.8a1.2,1.2,0,0,1-1.78.087,1.166,1.166,0,0,1,.1-1.728c1.6-1.629,3.218-3.237,4.837-4.846a1.1,1.1,0,0,1,1.379-.3A4.573,4.573,0,0,1,590.679,398.814Z" transform="translate(-568.981 -360.014)" fill="#006953"/>
      <path id="Trazado_31" data-name="Trazado 31" d="M564.593,398.835a1.2,1.2,0,0,1-.449,1.344c-1.42,1.382-2.807,2.8-4.211,4.2a3.006,3.006,0,0,1-.576.489,1.093,1.093,0,0,1-1.446-.19,1.056,1.056,0,0,1-.139-1.393,3.6,3.6,0,0,1,.49-.576q2.17-2.18,4.348-4.351l.147-.146c.4-.391.872-.736,1.4-.418.292.175.415.633.614.963Z" transform="translate(-550.491 -359.967)" fill="#006953"/>
      <path id="Trazado_32" data-name="Trazado 32" d="M748.938,415.139c-.326-.272-.8-.483-.914-.814a1.551,1.551,0,0,1,.194-1.254,23.153,23.153,0,0,1,1.914-1.984c.454-.457.9-.924,1.373-1.36a1.179,1.179,0,0,1,1.676-.075,1.156,1.156,0,0,1-.008,1.724c-1.068,1.111-2.165,2.2-3.276,3.265A4.289,4.289,0,0,1,748.938,415.139Z" transform="translate(-688.06 -368.403)" fill="#006953"/>
      <path id="Trazado_33" data-name="Trazado 33" d="M657,406.76a1.213,1.213,0,0,1,1.144,1.17,1.172,1.172,0,0,1-1.208,1.158,1.134,1.134,0,0,1-1.125-1.222A1.166,1.166,0,0,1,657,406.76Z" transform="translate(-621.47 -366.539)" fill="#006953"/>
    </g>
  </g>
</svg>
