<svg xmlns="http://www.w3.org/2000/svg" width="63.16" height="51.046" viewBox="0 0 63.16 51.046">
  <g id="Grupo_10" data-name="Grupo 10" transform="translate(-404.639 -148.024)">
    <path id="Trazado_18" data-name="Trazado 18" d="M467.8,156.541a3.746,3.746,0,0,0-4.035-4.048c-2.607-.009-5.215,0-7.822,0q-5.743,0-11.487,0c-.314,0-.633.084-.788-.374a4.011,4.011,0,0,0-2.847-2.491,17.022,17.022,0,0,1-2.45-1.037,4.368,4.368,0,0,0-4.242-.027,26.407,26.407,0,0,1-2.714,1.134,3.821,3.821,0,0,0-2.527,2.172.86.86,0,0,1-.979.638q-9.619-.029-19.239-.01a3.741,3.741,0,0,0-4.027,4.054q0,19.231,0,38.463a5.158,5.158,0,0,0,.065.981,3.754,3.754,0,0,0,4.031,3.076q13.742,0,27.484,0t27.484,0A3.755,3.755,0,0,0,467.8,195Q467.8,175.773,467.8,156.541Zm-22.657,3.041c0-.015.008-.029.013-.045a14.34,14.34,0,0,0,.459-1.493H462.2a.235.235,0,0,1,.234.234v34.839a.235.235,0,0,1-.234.234H410.584a.235.235,0,0,1-.234-.234V158.279a.235.235,0,0,1,.234-.234h16.229c.132.452.461.907.616,1.3a.5.5,0,0,1,.023.329c.414.392.251.558-.463,1.272-.8.8-1.619,1.572-2.376,2.406a1.182,1.182,0,0,0-.313.961c.094.241.563.43.887.468a18.267,18.267,0,0,0,2.007.021c0,.7-.045,1.376.02,2.039.03.307.213.772.433.845a1.2,1.2,0,0,0,.977-.265,27.3,27.3,0,0,0,2.1-2.084.908.908,0,0,1,1.211-.306c.651.316,1.358.526,1.986.88a4.339,4.339,0,0,0,4.6-.017c2.377-1.367,2.384-1.355,4.282.543a10,10,0,0,0,1.111,1.076,1.1,1.1,0,0,0,.88.172.958.958,0,0,0,.422-.719c.058-.694.02-1.4.02-2.171.668,0,1.272-.006,1.876,0,.436.006.953.018,1.031-.491a1.42,1.42,0,0,0-.386-1.021c-1.028-1.092-2.112-2.133-3.232-3.249C444.742,159.881,444.944,159.729,445.139,159.582Zm.283,3.655c-1.6.232-1.6.232-1.757,1.916l-.879-1.121,1.251-2.284Zm-16.591-7.358a26.307,26.307,0,0,0,1.18-2.846,2.911,2.911,0,0,1,1.952-1.943,23.747,23.747,0,0,0,2.843-1.188,3,3,0,0,1,2.824,0,31.243,31.243,0,0,0,2.91,1.209,2.793,2.793,0,0,1,1.806,1.726c.4,1.095.9,2.156,1.335,3.239.156.387.255.8.4,1.253-.153.425-.3.867-.469,1.3-.392.975-.848,1.928-1.187,2.921a2.957,2.957,0,0,1-2.019,1.97,19.9,19.9,0,0,0-2.716,1.128,3.011,3.011,0,0,1-2.949,0,19.7,19.7,0,0,0-2.716-1.128,2.949,2.949,0,0,1-2.035-2.038,18.279,18.279,0,0,0-1.152-2.783A2.923,2.923,0,0,1,428.831,155.88Zm.87,8.245-.907.868c-.284-1.467-.284-1.467-1.761-1.774l1.409-1.387Zm36.575,30.9a2.281,2.281,0,0,1-2.57,2.557q-27.486,0-54.972,0a2.287,2.287,0,0,1-2.575-2.553q0-19.268,0-38.536a2.241,2.241,0,0,1,2.394-2.513q9.549-.021,19.1,0c.112,0,.225.02.368.034l-1.009,2.549H410.584a1.72,1.72,0,0,0-1.719,1.719v34.839a1.72,1.72,0,0,0,1.719,1.719H462.2a1.72,1.72,0,0,0,1.718-1.719V158.279a1.72,1.72,0,0,0-1.718-1.719H445.42l-1-2.556c.2-.009.416-.028.633-.028q9.3,0,18.606,0a2.3,2.3,0,0,1,2.615,2.584Q466.281,175.793,466.277,195.026Z" transform="translate(0 0)" fill="#006953"/>
    <path id="Trazado_19" data-name="Trazado 19" d="M548.556,413.3c-.171-.107-.457-.032-.692-.032h-27.2q-4.792,0-9.584,0c-.514,0-.911.174-.931.727-.021.595.382.806.929.8.117,0,.235,0,.352,0h36.5c.211,0,.484.071.62-.032.266-.2.6-.492.628-.77C549.2,413.774,548.821,413.467,548.556,413.3Z" transform="translate(-93.464 -234.943)" fill="#006953"/>
    <path id="Trazado_20" data-name="Trazado 20" d="M510.91,360.825c-.235.158-.512.479-.5.717s.318.521.564.676c.171.107.457.036.691.036H532.8q7.818,0,15.637,0c.529,0,.987-.118,1.009-.714.024-.646-.456-.8-1.009-.793-.094,0-.188,0-.282,0q-18.243,0-36.486,0A1.491,1.491,0,0,0,510.91,360.825Z" transform="translate(-93.696 -188.435)" fill="#006953"/>
    <path id="Trazado_21" data-name="Trazado 21" d="M609.2,466.26c-3.145.008-6.29,0-9.435,0-3.216,0-6.431,0-9.647,0-.514,0-.915.151-.937.709-.024.6.393.795.934.787.141,0,.282,0,.422,0q9.154,0,18.307,0c.258,0,.584.073.756-.053.259-.19.572-.526.572-.8C610.169,466.337,609.686,466.259,609.2,466.26Z" transform="translate(-163.472 -281.907)" fill="#006953"/>
    <path id="Trazado_22" data-name="Trazado 22" d="M634.574,188.487a6.012,6.012,0,1,0-6.068-6.014A6.023,6.023,0,0,0,634.574,188.487Zm-.048-10.5a4.489,4.489,0,0,1,4.512,4.508,4.508,4.508,0,0,1-9.016.008A4.489,4.489,0,0,1,634.526,177.989Z" transform="translate(-198.312 -25.192)" fill="#006953"/>
  </g>
</svg>
