<svg xmlns="http://www.w3.org/2000/svg" width="52.639" height="67.139" viewBox="0 0 52.639 67.139">
  <g id="WSYHOb" transform="translate(-564.221 -249.805)">
    <g id="Grupo_6" data-name="Grupo 6" transform="translate(564.221 249.805)">
      <path id="Trazado_15" data-name="Trazado 15" d="M607.213,308.71l-3.539,6.49a5.194,5.194,0,0,1-.611,1.078,2.028,2.028,0,0,1-1.03.656c-.5.083-.811-.324-.989-.793q-1.32-3.49-2.649-6.977c-1.336-3.508-2.694-7.007-4-10.527a2.4,2.4,0,0,0-1.258-1.442,4.641,4.641,0,0,0-3.323-.669,16.043,16.043,0,0,0-2.641,1.1c-.154.072-.224.358-.3.557q-3.348,8.778-6.688,17.558c-.054.143-.066.327-.165.423-.3.286-.611.723-.945.749a1.42,1.42,0,0,1-1.031-.6,25.636,25.636,0,0,1-1.278-2.285l-2.89-5.3c-.228.08-.443.155-.659.232q-3.7,1.325-7.4,2.653a1.133,1.133,0,0,1-1.282-.158,1.152,1.152,0,0,1-.171-1.388q1.911-4.982,3.8-9.973c1.156-3.039,2.3-6.081,3.479-9.113a.677.677,0,0,0-.283-.955,6.1,6.1,0,0,1-2.483-6.4,4.8,4.8,0,0,0-1.63-4.929,6.318,6.318,0,0,1,.015-9.5,4.729,4.729,0,0,0,1.62-4.87,6.389,6.389,0,0,1,5.682-7.7,4.757,4.757,0,0,0,4.162-2.924,6.517,6.517,0,0,1,9.338-2.959,4.693,4.693,0,0,0,4.97-.009,6.511,6.511,0,0,1,9.328,2.99,4.724,4.724,0,0,0,4.109,2.9,6.328,6.328,0,0,1,5.762,5.323,8.131,8.131,0,0,1-.089,2.661,4.472,4.472,0,0,0,1.5,4.421,6.376,6.376,0,0,1-.016,9.87,4.363,4.363,0,0,0-1.462,4.424,6.277,6.277,0,0,1-2.571,6.8c-.374.275-.289.5-.165.827q2.208,5.779,4.4,11.563c.954,2.509,1.9,5.022,2.863,7.526a1.114,1.114,0,0,1-1.53,1.554C612.542,310.628,609.914,309.684,607.213,308.71ZM570.8,284.889a4.354,4.354,0,0,0,3.882,4.276,6.913,6.913,0,0,1,6.02,4.284,4.4,4.4,0,0,0,6.061,2.027,12.453,12.453,0,0,1,1.654-.783,6.768,6.768,0,0,1,5.673.649,4.375,4.375,0,0,0,6.256-1.835,7.006,7.006,0,0,1,6.114-4.353,4.279,4.279,0,0,0,3.687-5.168,6.579,6.579,0,0,1,2.206-6.782,4.243,4.243,0,0,0,0-6.513,6.62,6.62,0,0,1-2.221-6.785,4.52,4.52,0,0,0-.012-1.813,4.21,4.21,0,0,0-3.791-3.374,6.845,6.845,0,0,1-5.925-4.216,4.382,4.382,0,0,0-6.317-1.953,6.878,6.878,0,0,1-7.109.014,4.936,4.936,0,0,0-2.1-.617,4.278,4.278,0,0,0-4.3,2.727,6.514,6.514,0,0,1-4.665,3.856c-.53.122-1.086.131-1.618.245a4.333,4.333,0,0,0-3.349,5.2,6.435,6.435,0,0,1-1.982,6.495c-2.34,2.15-2.339,4.831,0,6.963a6.3,6.3,0,0,1,2.061,6.041C570.944,283.942,570.876,284.416,570.8,284.889Zm3.065,6.131-6.8,17.885c.362-.116.583-.181.8-.259q2.9-1.038,5.79-2.079c.986-.353,1.317-.23,1.809.67q1.508,2.758,3.01,5.518c.1.178.208.349.369.616l5.8-15.247c-3.219-.411-4.646-1.471-6.114-4.262a4.561,4.561,0,0,0-1.63-1.808A16.343,16.343,0,0,0,573.867,291.02Zm22.566,7.093,5.817,15.273c.176-.309.286-.5.39-.685q1.505-2.759,3.009-5.519c.451-.824.823-.962,1.717-.645,1.11.394,2.217.8,3.326,1.193,1.059.379,2.118.756,3.333,1.189l-6.745-17.73c-.488.062-.921.109-1.35.174a4.174,4.174,0,0,0-3.385,2.489A6.78,6.78,0,0,1,596.433,298.113Z" transform="translate(-564.221 -249.805)" fill="#006953"/>
      <path id="Trazado_16" data-name="Trazado 16" d="M620.226,281.778a15.741,15.741,0,1,1-15.752,15.7A15.751,15.751,0,0,1,620.226,281.778Zm.037,2.105a13.638,13.638,0,1,0,13.6,13.614A13.643,13.643,0,0,0,620.263,283.883Z" transform="translate(-593.898 -273.378)" fill="#006953"/>
      <path id="Trazado_17" data-name="Trazado 17" d="M647.72,313.12a4.04,4.04,0,0,1-.507.737c-1.033,1.038-2.107,2.034-3.129,3.083a1.132,1.132,0,0,0-.267.837c.214,1.49.523,2.968.711,4.461a1.661,1.661,0,0,1-.4,1.14c-.313.365-.789.251-1.209.028-1.31-.7-2.634-1.371-3.938-2.08a.885.885,0,0,0-.962-.013c-1.283.7-2.589,1.36-3.88,2.048a1.093,1.093,0,0,1-1.714-1.219c.264-1.461.521-2.923.736-4.391a1.059,1.059,0,0,0-.245-.786c-1.024-1.046-2.08-2.061-3.139-3.072a1.208,1.208,0,0,1-.465-1.331c.191-.567.681-.674,1.2-.746,1.427-.2,2.856-.394,4.276-.637a1.055,1.055,0,0,0,.663-.482c.67-1.275,1.3-2.57,1.926-3.867a1.217,1.217,0,0,1,1.121-.858c.581.005.876.4,1.109.879.626,1.3,1.257,2.592,1.924,3.869a.972.972,0,0,0,.615.446c1.464.246,2.936.447,4.4.662A1.161,1.161,0,0,1,647.72,313.12Zm-3.47.509c-.861-.125-1.758-.3-2.663-.372a1.92,1.92,0,0,1-1.828-1.311c-.34-.855-.808-1.659-1.276-2.6-.539,1.092-1.015,2.044-1.48,3a1.319,1.319,0,0,1-1.1.806c-1.075.137-2.145.318-3.144.47.731.785,1.447,1.574,2.188,2.339a1.4,1.4,0,0,1,.44,1.354c-.213,1.064-.366,2.139-.558,3.294.926-.483,1.8-.884,2.617-1.382a1.806,1.806,0,0,1,2.074-.011c.822.493,1.7.9,2.625,1.38-.189-1.135-.322-2.153-.54-3.153a1.547,1.547,0,0,1,.516-1.576C642.849,315.161,643.528,314.4,644.25,313.629Z" transform="translate(-612.165 -291.214)" fill="#006953"/>
    </g>
  </g>
</svg>
