<svg xmlns="http://www.w3.org/2000/svg" width="35.21" height="35.21" viewBox="0 0 35.21 35.21">
  <path id="Trazado_12" data-name="Trazado 12" d="M1135.914-585.145a17.6,17.6,0,0,0-17.6,17.6,17.6,17.6,0,0,0,17.6,17.605,17.605,17.605,0,0,0,17.605-17.605A17.6,17.6,0,0,0,1135.914-585.145Zm-4.3,26.04h-3.677v-11.88h3.677Zm-1.856-13.436a2.184,2.184,0,0,1-2.175-2.193,2.183,2.183,0,0,1,2.175-2.192,2.183,2.183,0,0,1,2.174,2.192A2.184,2.184,0,0,1,1129.754-572.541Zm15.638,13.436h-3.66v-6.236c0-1.71-.65-2.665-2-2.665-1.472,0-2.241,1-2.241,2.665v6.236h-3.528v-11.88h3.528v1.6a4.143,4.143,0,0,1,3.58-1.963c2.519,0,4.323,1.538,4.323,4.721Z" transform="translate(-1118.309 585.145)" fill="#006953"/>
</svg>
