<svg xmlns="http://www.w3.org/2000/svg" width="35.21" height="35.21" viewBox="0 0 35.21 35.21">
  <path id="Trazado_11" data-name="Trazado 11" d="M1375.5-580.8a17.6,17.6,0,0,0-17.605,17.6,17.605,17.605,0,0,0,17.605,17.605,17.605,17.605,0,0,0,17.6-17.605A17.6,17.6,0,0,0,1375.5-580.8Zm7.529,14.571a10.988,10.988,0,0,1-11.042,11.556,11,11,0,0,1-5.955-1.745,7.807,7.807,0,0,0,5.751-1.609,3.887,3.887,0,0,1-3.628-2.7,3.889,3.889,0,0,0,1.754-.066,3.889,3.889,0,0,1-3.116-3.859,3.869,3.869,0,0,0,1.76.486,3.889,3.889,0,0,1-1.2-5.187,11.024,11.024,0,0,0,8.007,4.059,3.888,3.888,0,0,1,3.784-4.77,3.879,3.879,0,0,1,2.836,1.227,7.788,7.788,0,0,0,2.466-.943,3.89,3.89,0,0,1-1.708,2.149,7.765,7.765,0,0,0,2.231-.611A7.871,7.871,0,0,1,1383.032-566.233Z" transform="translate(-1357.898 580.804)" fill="#006953"/>
</svg>
