<svg xmlns="http://www.w3.org/2000/svg" xmlns:xlink="http://www.w3.org/1999/xlink" width="33.563" height="19.577" viewBox="0 0 33.563 19.577">
  <defs>
    <clipPath id="clip-path">
      <rect id="Rect치ngulo_156" data-name="Rect치ngulo 156" width="33.563" height="19.577" transform="translate(-185.494 117.687)" fill="none"/>
    </clipPath>
  </defs>
  <g id="BRAZIL" transform="translate(185.494 -117.687)">
    <g id="Grupo_104" data-name="Grupo 104">
      <g id="Grupo_103" data-name="Grupo 103">
        <g id="Grupo_102" data-name="Grupo 102" clip-path="url(#clip-path)">
          <rect id="Rect치ngulo_154" data-name="Rect치ngulo 154" width="33.563" height="19.577" transform="translate(-185.494 117.687)" fill="#3c9242"/>
          <path id="Trazado_41" data-name="Trazado 41" d="M-180.318,127.475l11.605,7.412,11.611-7.412-11.611-7.411Z" fill="#edc226"/>
          <g id="Grupo_101" data-name="Grupo 101">
            <g id="Grupo_100" data-name="Grupo 100" clip-path="url(#clip-path)">
              <path id="Trazado_42" data-name="Trazado 42" d="M-163.82,127.475a4.893,4.893,0,0,1-4.893,4.893,4.891,4.891,0,0,1-4.89-4.893,4.895,4.895,0,0,1,4.89-4.9,4.9,4.9,0,0,1,4.893,4.9" fill="#2d146e"/>
              <path id="Trazado_43" data-name="Trazado 43" d="M-171.508,125.376a12.234,12.234,0,0,0-1.683.119,5.009,5.009,0,0,0-.26.748,11.5,11.5,0,0,1,1.943-.167,11.142,11.142,0,0,1,7.467,2.86,4.5,4.5,0,0,0,.174-.774,11.831,11.831,0,0,0-7.641-2.786" fill="#fff"/>
              <path id="Trazado_44" data-name="Trazado 44" d="M-172.887,126.043a.219.219,0,0,0,.178-.256.218.218,0,0,0-.234-.205.214.214,0,0,0-.178.256.218.218,0,0,0,.234.205m-.01-.085a.141.141,0,0,0,.1-.161.134.134,0,0,0-.141-.13.135.135,0,0,0-.1.16.139.139,0,0,0,.142.131" fill="#3c9242" fill-rule="evenodd"/>
              <path id="Trazado_45" data-name="Trazado 45" d="M-172.506,126l.084-.008-.012-.172.19-.013a.152.152,0,0,0,.135-.157.15.15,0,0,0-.157-.135l-.269.018Zm.066-.266.18-.011a.064.064,0,0,0,.055-.066.057.057,0,0,0-.061-.055l-.181.01Z" fill="#3c9242" fill-rule="evenodd"/>
              <path id="Trazado_46" data-name="Trazado 46" d="M-172.113,125.975c0-.067-.012-.212-.114-.207l-.126.008c.144-.008.156.139.163.2" fill="#3c9242"/>
              <path id="Trazado_47" data-name="Trazado 47" d="M-171.914,125.966l.217-.005a.2.2,0,0,0,.2-.2l0-.067a.2.2,0,0,0-.2-.2l-.217,0Zm.082-.089.127,0a.123.123,0,0,0,.123-.128V125.7a.125.125,0,0,0-.125-.122l-.129,0Z" fill="#3c9242" fill-rule="evenodd"/>
              <path id="Trazado_48" data-name="Trazado 48" d="M-171.328,125.96l.422.015,0-.088-.338-.012,0-.118.268.007v-.079l-.264-.01v-.092l.322.011v-.088l-.4-.014Z" fill="#3c9242"/>
              <path id="Trazado_49" data-name="Trazado 49" d="M-170.732,125.984l.08.007.027-.318.062.326.076.007.119-.311-.027.318.078.008.041-.466-.113-.01-.123.311-.064-.327-.117-.01Z" fill="#3c9242"/>
              <path id="Trazado_50" data-name="Trazado 50" d="M-169.77,126.093l.35.059.01-.078-.264-.045.018-.1.219.037.01-.08-.213-.036.01-.073.258.045.01-.079-.332-.059Z" fill="#3c9242"/>
              <path id="Trazado_51" data-name="Trazado 51" d="M-168.883,126.267l.082.022.047-.167.178.045a.147.147,0,0,0,.181-.1.152.152,0,0,0-.1-.18l-.258-.067Zm.152-.231.172.046a.056.056,0,0,0,.071-.043.06.06,0,0,0-.041-.073l-.174-.045Z" fill="#3c9242" fill-rule="evenodd"/>
              <path id="Trazado_52" data-name="Trazado 52" d="M-168.311,126.419l.084.025.053-.164.174.056a.148.148,0,0,0,.185-.1.144.144,0,0,0-.093-.183l-.258-.081Zm.163-.222.171.055a.061.061,0,0,0,.075-.04.057.057,0,0,0-.039-.074l-.17-.055Z" fill="#3c9242" fill-rule="evenodd"/>
              <path id="Trazado_53" data-name="Trazado 53" d="M-167.934,126.538c.022-.063.065-.2-.029-.232l-.119-.039c.137.044.094.183.072.248" fill="#3c9242"/>
              <path id="Trazado_54" data-name="Trazado 54" d="M-167.551,126.676a.223.223,0,0,0,.278-.145.22.22,0,0,0-.114-.292.221.221,0,0,0-.279.143.225.225,0,0,0,.115.294m.029-.082a.137.137,0,0,0,.169-.094.137.137,0,0,0-.063-.181.142.142,0,0,0-.17.1.139.139,0,0,0,.064.18" fill="#3c9242" fill-rule="evenodd"/>
              <path id="Trazado_55" data-name="Trazado 55" d="M-167,126.9a.227.227,0,0,0,.287-.13.225.225,0,0,0-.1-.3.219.219,0,0,0-.284.13.225.225,0,0,0,.1.3m.035-.081a.131.131,0,0,0,.17-.085.137.137,0,0,0-.053-.184.135.135,0,0,0-.17.086.133.133,0,0,0,.053.183" fill="#3c9242" fill-rule="evenodd"/>
              <path id="Trazado_56" data-name="Trazado 56" d="M-166.879,126.7l.164.071-.031.061-.158-.072Z" fill="#3c9242"/>
              <path id="Trazado_57" data-name="Trazado 57" d="M-166.777,126.739l.063.028-.1.213-.057-.027Z" fill="#3c9242"/>
              <path id="Trazado_58" data-name="Trazado 58" d="M-166.65,127.054l.076.038.076-.157.166.086a.146.146,0,0,0,.2-.066.144.144,0,0,0-.064-.2l-.237-.119Zm.191-.194.16.08a.059.059,0,0,0,.08-.027.06.06,0,0,0-.025-.08l-.164-.08Z" fill="#3c9242" fill-rule="evenodd"/>
              <path id="Trazado_59" data-name="Trazado 59" d="M-166.3,127.23c.029-.059.094-.19.006-.235l-.115-.059c.135.068.068.2.041.257" fill="#3c9242"/>
              <path id="Trazado_60" data-name="Trazado 60" d="M-166.125,127.322l.367.206.039-.075-.293-.167.057-.1.232.132.039-.072-.23-.129.047-.083.275.158.047-.075-.352-.2Z" fill="#3c9242"/>
              <path id="Trazado_61" data-name="Trazado 61" d="M-165.443,127.55c-.026.038,0,.083.054.119s.094.033.112.01c.05-.082-.243-.2-.153-.337.077-.12.211-.027.262,0a.152.152,0,0,1,.068.212l-.086-.056c.03-.04,0-.082-.048-.107s-.079-.044-.1,0c-.045.063.246.184.154.325-.06.1-.175.056-.25.009s-.162-.139-.1-.236Z" fill="#3c9242"/>
              <path id="Trazado_62" data-name="Trazado 62" d="M-164.943,127.88c-.03.037-.008.083.046.122s.1.041.114.016c.052-.077-.237-.21-.135-.344.084-.116.215-.016.262.017a.152.152,0,0,1,.054.216l-.08-.059c.026-.04,0-.081-.045-.114s-.072-.044-.1,0c-.047.062.232.2.138.335-.072.1-.185.048-.253-.005s-.157-.146-.088-.241Z" fill="#3c9242"/>
              <path id="Trazado_63" data-name="Trazado 63" d="M-164.473,128.417a.222.222,0,0,0,.309-.052.222.222,0,0,0-.018-.312.219.219,0,0,0-.308.052.222.222,0,0,0,.017.312m.055-.069a.135.135,0,0,0,.19-.038.138.138,0,0,0-.008-.19.132.132,0,0,0-.186.037.13.13,0,0,0,0,.191" fill="#3c9242" fill-rule="evenodd"/>
              <path id="Trazado_64" data-name="Trazado 64" d="M-172.709,126.386l-.064.2.1.033Z" fill="#fff"/>
              <path id="Trazado_65" data-name="Trazado 65" d="M-172.709,126.386l.066.2-.1.033Z" fill="#fff"/>
              <path id="Trazado_66" data-name="Trazado 66" d="M-172.51,126.531h-.209v.1Z" fill="#fff"/>
              <path id="Trazado_67" data-name="Trazado 67" d="M-172.51,126.531l-.166.122-.066-.084Z" fill="#fff"/>
              <path id="Trazado_68" data-name="Trazado 68" d="M-172.908,126.531l.17.122.063-.084Z" fill="#fff"/>
              <path id="Trazado_69" data-name="Trazado 69" d="M-172.908,126.531h.211v.1Z" fill="#fff"/>
              <path id="Trazado_70" data-name="Trazado 70" d="M-172.586,126.765l-.064-.2-.1.033Z" fill="#fff"/>
              <path id="Trazado_71" data-name="Trazado 71" d="M-172.586,126.765l-.17-.124.063-.085Z" fill="#fff"/>
              <path id="Trazado_72" data-name="Trazado 72" d="M-172.832,126.765l.17-.124-.061-.085Z" fill="#fff"/>
              <path id="Trazado_73" data-name="Trazado 73" d="M-172.832,126.765l.066-.2.1.033Z" fill="#fff"/>
              <path id="Trazado_74" data-name="Trazado 74" d="M-172.273,128.443l-.066.2.1.032Z" fill="#fff"/>
              <path id="Trazado_75" data-name="Trazado 75" d="M-172.273,128.443l.063.2-.1.032Z" fill="#fff"/>
              <path id="Trazado_76" data-name="Trazado 76" d="M-172.078,128.588h-.207v.105Z" fill="#fff"/>
              <path id="Trazado_77" data-name="Trazado 77" d="M-172.078,128.588l-.166.124-.062-.087Z" fill="#fff"/>
              <path id="Trazado_78" data-name="Trazado 78" d="M-172.473,128.588l.166.124.066-.087Z" fill="#fff"/>
              <path id="Trazado_79" data-name="Trazado 79" d="M-172.473,128.588h.211v.105Z" fill="#fff"/>
              <path id="Trazado_80" data-name="Trazado 80" d="M-172.15,128.823l-.064-.2-.1.032Z" fill="#fff"/>
              <path id="Trazado_81" data-name="Trazado 81" d="M-172.15,128.823l-.17-.125.06-.083Z" fill="#fff"/>
              <path id="Trazado_82" data-name="Trazado 82" d="M-172.4,128.823l.174-.125-.064-.083Z" fill="#fff"/>
              <path id="Trazado_83" data-name="Trazado 83" d="M-172.4,128.823l.064-.2.1.032Z" fill="#fff"/>
              <path id="Trazado_84" data-name="Trazado 84" d="M-172.875,128.951l-.039.135.064.021Z" fill="#fff"/>
              <path id="Trazado_85" data-name="Trazado 85" d="M-172.875,128.951l.043.135-.064.021Z" fill="#fff"/>
              <path id="Trazado_86" data-name="Trazado 86" d="M-172.742,129.049h-.141v.07Z" fill="#fff"/>
              <path id="Trazado_87" data-name="Trazado 87" d="M-172.742,129.049l-.111.083-.041-.057Z" fill="#fff"/>
              <path id="Trazado_88" data-name="Trazado 88" d="M-173.006,129.049l.111.083.041-.057Z" fill="#fff"/>
              <path id="Trazado_89" data-name="Trazado 89" d="M-173.006,129.049h.139v.07Z" fill="#fff"/>
              <path id="Trazado_90" data-name="Trazado 90" d="M-172.793,129.205l-.043-.133-.064.022Z" fill="#fff"/>
              <path id="Trazado_91" data-name="Trazado 91" d="M-172.793,129.205l-.111-.082.041-.058Z" fill="#fff"/>
              <path id="Trazado_92" data-name="Trazado 92" d="M-172.955,129.205l.111-.082-.039-.058Z" fill="#fff"/>
              <path id="Trazado_93" data-name="Trazado 93" d="M-172.955,129.205l.041-.133.064.022Z" fill="#fff"/>
              <path id="Trazado_94" data-name="Trazado 94" d="M-171.795,128.253l-.033.094.047.018Z" fill="#fff"/>
              <path id="Trazado_95" data-name="Trazado 95" d="M-171.795,128.253l.029.094-.047.018Z" fill="#fff"/>
              <path id="Trazado_96" data-name="Trazado 96" d="M-171.7,128.323h-.1v.049Z" fill="#fff"/>
              <path id="Trazado_97" data-name="Trazado 97" d="M-171.7,128.323l-.08.059-.027-.041Z" fill="#fff"/>
              <path id="Trazado_98" data-name="Trazado 98" d="M-171.893,128.323l.084.059.027-.041Z" fill="#fff"/>
              <path id="Trazado_99" data-name="Trazado 99" d="M-171.893,128.323h.1v.049Z" fill="#fff"/>
              <path id="Trazado_100" data-name="Trazado 100" d="M-171.736,128.435l-.033-.1-.043.017Z" fill="#fff"/>
              <path id="Trazado_101" data-name="Trazado 101" d="M-171.736,128.435l-.08-.06.029-.041Z" fill="#fff"/>
              <path id="Trazado_102" data-name="Trazado 102" d="M-171.854,128.435l.08-.06-.029-.041Z" fill="#fff"/>
              <path id="Trazado_103" data-name="Trazado 103" d="M-171.854,128.435l.029-.1.047.017Z" fill="#fff"/>
              <path id="Trazado_104" data-name="Trazado 104" d="M-171.254,128.964l-.055.167.078.028Z" fill="#fff"/>
              <path id="Trazado_105" data-name="Trazado 105" d="M-171.254,128.964l.051.167-.08.028Z" fill="#fff"/>
              <path id="Trazado_106" data-name="Trazado 106" d="M-171.092,129.086h-.174v.086Z" fill="#fff"/>
              <path id="Trazado_107" data-name="Trazado 107" d="M-171.092,129.086l-.141.1-.051-.072Z" fill="#fff"/>
              <path id="Trazado_108" data-name="Trazado 108" d="M-171.422,129.086l.141.1.051-.072Z" fill="#fff"/>
              <path id="Trazado_109" data-name="Trazado 109" d="M-171.422,129.086h.174v.086Z" fill="#fff"/>
              <path id="Trazado_110" data-name="Trazado 110" d="M-171.152,129.278l-.055-.164-.084.027Z" fill="#fff"/>
              <path id="Trazado_111" data-name="Trazado 111" d="M-171.152,129.278l-.143-.1.051-.069Z" fill="#fff"/>
              <path id="Trazado_112" data-name="Trazado 112" d="M-171.356,129.278l.137-.1-.051-.069Z" fill="#fff"/>
              <path id="Trazado_113" data-name="Trazado 113" d="M-171.356,129.278l.051-.164.082.027Z" fill="#fff"/>
              <path id="Trazado_114" data-name="Trazado 114" d="M-171.4,129.45l-.055.167.082.027Z" fill="#fff"/>
              <path id="Trazado_115" data-name="Trazado 115" d="M-171.4,129.45l.053.167-.082.027Z" fill="#fff"/>
              <path id="Trazado_116" data-name="Trazado 116" d="M-171.236,129.572h-.174v.085Z" fill="#fff"/>
              <path id="Trazado_117" data-name="Trazado 117" d="M-171.236,129.572l-.143.1-.051-.071Z" fill="#fff"/>
              <path id="Trazado_118" data-name="Trazado 118" d="M-171.566,129.572l.141.1.051-.071Z" fill="#fff"/>
              <path id="Trazado_119" data-name="Trazado 119" d="M-171.566,129.572h.174v.085Z" fill="#fff"/>
              <path id="Trazado_120" data-name="Trazado 120" d="M-171.3,129.767l-.051-.167-.084.027Z" fill="#fff"/>
              <path id="Trazado_121" data-name="Trazado 121" d="M-171.3,129.767l-.143-.1.055-.068Z" fill="#fff"/>
              <path id="Trazado_122" data-name="Trazado 122" d="M-171.5,129.767l.141-.1-.051-.068Z" fill="#fff"/>
              <path id="Trazado_123" data-name="Trazado 123" d="M-171.5,129.767l.053-.167.084.027Z" fill="#fff"/>
              <path id="Trazado_124" data-name="Trazado 124" d="M-167.2,125.746l-.065.2.1.031Z" fill="#fff"/>
              <path id="Trazado_125" data-name="Trazado 125" d="M-167.2,125.746l.066.2-.1.031Z" fill="#fff"/>
              <path id="Trazado_126" data-name="Trazado 126" d="M-167,125.891h-.209V126Z" fill="#fff"/>
              <path id="Trazado_127" data-name="Trazado 127" d="M-167,125.891l-.17.124-.061-.086Z" fill="#fff"/>
              <path id="Trazado_128" data-name="Trazado 128" d="M-167.395,125.891l.172.124.061-.086Z" fill="#fff"/>
              <path id="Trazado_129" data-name="Trazado 129" d="M-167.395,125.891h.211V126Z" fill="#fff"/>
              <path id="Trazado_130" data-name="Trazado 130" d="M-167.07,126.127l-.066-.2-.1.033Z" fill="#fff"/>
              <path id="Trazado_131" data-name="Trazado 131" d="M-167.07,126.127l-.172-.124.063-.086Z" fill="#fff"/>
              <path id="Trazado_132" data-name="Trazado 132" d="M-167.318,126.127l.17-.124-.061-.086Z" fill="#fff"/>
              <path id="Trazado_133" data-name="Trazado 133" d="M-167.318,126.127l.066-.2.1.033Z" fill="#fff"/>
              <path id="Trazado_134" data-name="Trazado 134" d="M-165.285,128.983l-.064.2.1.033Z" fill="#fff"/>
              <path id="Trazado_135" data-name="Trazado 135" d="M-165.285,128.983l.067.2-.1.033Z" fill="#fff"/>
              <path id="Trazado_136" data-name="Trazado 136" d="M-165.084,129.128h-.211v.1Z" fill="#fff"/>
              <path id="Trazado_137" data-name="Trazado 137" d="M-165.084,129.128l-.168.123-.064-.086Z" fill="#fff"/>
              <path id="Trazado_138" data-name="Trazado 138" d="M-165.484,129.128l.172.123.061-.086Z" fill="#fff"/>
              <path id="Trazado_139" data-name="Trazado 139" d="M-165.484,129.128h.211v.1Z" fill="#fff"/>
              <path id="Trazado_140" data-name="Trazado 140" d="M-165.156,129.362l-.067-.2-.1.031Z" fill="#fff"/>
              <path id="Trazado_141" data-name="Trazado 141" d="M-165.156,129.362l-.172-.123.063-.086Z" fill="#fff"/>
              <path id="Trazado_142" data-name="Trazado 142" d="M-165.406,129.362l.17-.123-.062-.086Z" fill="#fff"/>
              <path id="Trazado_143" data-name="Trazado 143" d="M-165.406,129.362l.064-.2.1.031Z" fill="#fff"/>
              <path id="Trazado_144" data-name="Trazado 144" d="M-164.6,129.1l-.047.132.07.021Z" fill="#fff"/>
              <path id="Trazado_145" data-name="Trazado 145" d="M-164.6,129.1l.043.132-.07.021Z" fill="#fff"/>
              <path id="Trazado_146" data-name="Trazado 146" d="M-164.473,129.2h-.137v.068Z" fill="#fff"/>
              <path id="Trazado_147" data-name="Trazado 147" d="M-164.473,129.2l-.111.082-.041-.058Z" fill="#fff"/>
              <path id="Trazado_148" data-name="Trazado 148" d="M-164.736,129.2l.111.082.045-.058Z" fill="#fff"/>
              <path id="Trazado_149" data-name="Trazado 149" d="M-164.736,129.2h.141v.068Z" fill="#fff"/>
              <path id="Trazado_150" data-name="Trazado 150" d="M-164.523,129.352l-.039-.134-.068.023Z" fill="#fff"/>
              <path id="Trazado_151" data-name="Trazado 151" d="M-164.523,129.352l-.111-.082.043-.058Z" fill="#fff"/>
              <path id="Trazado_152" data-name="Trazado 152" d="M-164.686,129.352l.111-.082-.039-.058Z" fill="#fff"/>
              <path id="Trazado_153" data-name="Trazado 153" d="M-164.686,129.352l.043-.134.064.023Z" fill="#fff"/>
              <path id="Trazado_154" data-name="Trazado 154" d="M-165.084,129.45l-.051.167.08.027Z" fill="#fff"/>
              <path id="Trazado_155" data-name="Trazado 155" d="M-165.084,129.45l.053.167-.078.027Z" fill="#fff"/>
              <path id="Trazado_156" data-name="Trazado 156" d="M-164.918,129.572h-.174v.085Z" fill="#fff"/>
              <path id="Trazado_157" data-name="Trazado 157" d="M-164.918,129.572l-.137.1-.055-.071Z" fill="#fff"/>
              <path id="Trazado_158" data-name="Trazado 158" d="M-165.248,129.572l.142.1.051-.071Z" fill="#fff"/>
              <path id="Trazado_159" data-name="Trazado 159" d="M-165.248,129.572h.174v.085Z" fill="#fff"/>
              <path id="Trazado_160" data-name="Trazado 160" d="M-164.981,129.767l-.053-.167-.084.027Z" fill="#fff"/>
              <path id="Trazado_161" data-name="Trazado 161" d="M-164.981,129.767l-.141-.1.051-.068Z" fill="#fff"/>
              <path id="Trazado_162" data-name="Trazado 162" d="M-165.186,129.767l.141-.1-.051-.068Z" fill="#fff"/>
              <path id="Trazado_163" data-name="Trazado 163" d="M-165.186,129.767l.053-.167.084.027Z" fill="#fff"/>
              <path id="Trazado_164" data-name="Trazado 164" d="M-166.262,130.476l-.055.165.082.028Z" fill="#fff"/>
              <path id="Trazado_165" data-name="Trazado 165" d="M-166.262,130.476l.053.165-.084.028Z" fill="#fff"/>
              <path id="Trazado_166" data-name="Trazado 166" d="M-166.1,130.6h-.174v.088Z" fill="#fff"/>
              <path id="Trazado_167" data-name="Trazado 167" d="M-166.1,130.6l-.143.1-.051-.071Z" fill="#fff"/>
              <path id="Trazado_168" data-name="Trazado 168" d="M-166.426,130.6l.141.1.047-.071Z" fill="#fff"/>
              <path id="Trazado_169" data-name="Trazado 169" d="M-166.426,130.6h.174v.088Z" fill="#fff"/>
              <path id="Trazado_170" data-name="Trazado 170" d="M-166.162,130.792l-.049-.166-.088.026Z" fill="#fff"/>
              <path id="Trazado_171" data-name="Trazado 171" d="M-166.162,130.792l-.141-.1.051-.069Z" fill="#fff"/>
              <path id="Trazado_172" data-name="Trazado 172" d="M-166.363,130.792l.141-.1-.051-.069Z" fill="#fff"/>
              <path id="Trazado_173" data-name="Trazado 173" d="M-166.363,130.792l.053-.166.084.026Z" fill="#fff"/>
              <path id="Trazado_174" data-name="Trazado 174" d="M-166.27,131l-.041.131.066.023Z" fill="#fff"/>
              <path id="Trazado_175" data-name="Trazado 175" d="M-166.27,131l.043.131-.066.023Z" fill="#fff"/>
              <path id="Trazado_176" data-name="Trazado 176" d="M-166.137,131.1h-.137v.069Z" fill="#fff"/>
              <path id="Trazado_177" data-name="Trazado 177" d="M-166.137,131.1l-.115.08-.041-.056Z" fill="#fff"/>
              <path id="Trazado_178" data-name="Trazado 178" d="M-166.4,131.1l.111.08.041-.056Z" fill="#fff"/>
              <path id="Trazado_179" data-name="Trazado 179" d="M-166.4,131.1h.139v.069Z" fill="#fff"/>
              <path id="Trazado_180" data-name="Trazado 180" d="M-166.188,131.255l-.043-.13-.068.02Z" fill="#fff"/>
              <path id="Trazado_181" data-name="Trazado 181" d="M-166.188,131.255l-.115-.08.043-.057Z" fill="#fff"/>
              <path id="Trazado_182" data-name="Trazado 182" d="M-166.35,131.255l.111-.08-.043-.057Z" fill="#fff"/>
              <path id="Trazado_183" data-name="Trazado 183" d="M-166.35,131.255l.043-.13.064.02Z" fill="#fff"/>
              <path id="Trazado_184" data-name="Trazado 184" d="M-165.773,130.124l-.047.134.064.021Z" fill="#fff"/>
              <path id="Trazado_185" data-name="Trazado 185" d="M-165.773,130.124l.039.134-.064.021Z" fill="#fff"/>
              <path id="Trazado_186" data-name="Trazado 186" d="M-165.643,130.221h-.143v.07Z" fill="#fff"/>
              <path id="Trazado_187" data-name="Trazado 187" d="M-165.643,130.221l-.113.084-.043-.056Z" fill="#fff"/>
              <path id="Trazado_188" data-name="Trazado 188" d="M-165.908,130.221l.113.084.039-.056Z" fill="#fff"/>
              <path id="Trazado_189" data-name="Trazado 189" d="M-165.908,130.221h.143v.07Z" fill="#fff"/>
              <path id="Trazado_190" data-name="Trazado 190" d="M-165.693,130.377l-.045-.132-.064.021Z" fill="#fff"/>
              <path id="Trazado_191" data-name="Trazado 191" d="M-165.693,130.377l-.113-.081.045-.057Z" fill="#fff"/>
              <path id="Trazado_192" data-name="Trazado 192" d="M-165.857,130.377l.113-.081-.041-.057Z" fill="#fff"/>
              <path id="Trazado_193" data-name="Trazado 193" d="M-165.857,130.377l.045-.132.065.021Z" fill="#fff"/>
              <path id="Trazado_194" data-name="Trazado 194" d="M-165.383,129.844l-.053.165.08.027Z" fill="#fff"/>
              <path id="Trazado_195" data-name="Trazado 195" d="M-165.383,129.844l.055.165-.086.027Z" fill="#fff"/>
              <path id="Trazado_196" data-name="Trazado 196" d="M-165.219,129.965h-.174v.086Z" fill="#fff"/>
              <path id="Trazado_197" data-name="Trazado 197" d="M-165.219,129.965l-.137.1-.051-.072Z" fill="#fff"/>
              <path id="Trazado_198" data-name="Trazado 198" d="M-165.549,129.965l.143.1.051-.072Z" fill="#fff"/>
              <path id="Trazado_199" data-name="Trazado 199" d="M-165.549,129.965h.174v.086Z" fill="#fff"/>
              <path id="Trazado_200" data-name="Trazado 200" d="M-165.281,130.157l-.051-.163-.086.026Z" fill="#fff"/>
              <path id="Trazado_201" data-name="Trazado 201" d="M-165.281,130.157l-.141-.1.051-.07Z" fill="#fff"/>
              <path id="Trazado_202" data-name="Trazado 202" d="M-165.486,130.157l.145-.1-.055-.07Z" fill="#fff"/>
              <path id="Trazado_203" data-name="Trazado 203" d="M-165.486,130.157l.057-.163.08.026Z" fill="#fff"/>
              <path id="Trazado_204" data-name="Trazado 204" d="M-166.285,130.031l-.039.133.064.022Z" fill="#fff"/>
              <path id="Trazado_205" data-name="Trazado 205" d="M-166.285,130.031l.047.133-.068.022Z" fill="#fff"/>
              <path id="Trazado_206" data-name="Trazado 206" d="M-166.146,130.129h-.143v.069Z" fill="#fff"/>
              <path id="Trazado_207" data-name="Trazado 207" d="M-166.146,130.129l-.115.081-.041-.058Z" fill="#fff"/>
              <path id="Trazado_208" data-name="Trazado 208" d="M-166.414,130.129l.111.081.041-.058Z" fill="#fff"/>
              <path id="Trazado_209" data-name="Trazado 209" d="M-166.414,130.129h.141v.069Z" fill="#fff"/>
              <path id="Trazado_210" data-name="Trazado 210" d="M-166.2,130.286l-.045-.135-.068.021Z" fill="#fff"/>
              <path id="Trazado_211" data-name="Trazado 211" d="M-166.2,130.286l-.115-.085.039-.054Z" fill="#fff"/>
              <path id="Trazado_212" data-name="Trazado 212" d="M-166.363,130.286l.111-.085-.041-.054Z" fill="#fff"/>
              <path id="Trazado_213" data-name="Trazado 213" d="M-166.363,130.286l.043-.135.068.021Z" fill="#fff"/>
              <path id="Trazado_214" data-name="Trazado 214" d="M-170.576,127.5l-.055.165.084.026Z" fill="#fff"/>
              <path id="Trazado_215" data-name="Trazado 215" d="M-170.576,127.5l.053.165-.082.026Z" fill="#fff"/>
              <path id="Trazado_216" data-name="Trazado 216" d="M-170.41,127.62h-.174v.087Z" fill="#fff"/>
              <path id="Trazado_217" data-name="Trazado 217" d="M-170.41,127.62l-.141.1-.051-.072Z" fill="#fff"/>
              <path id="Trazado_218" data-name="Trazado 218" d="M-170.744,127.62l.143.1.051-.072Z" fill="#fff"/>
              <path id="Trazado_219" data-name="Trazado 219" d="M-170.744,127.62h.174v.087Z" fill="#fff"/>
              <path id="Trazado_220" data-name="Trazado 220" d="M-170.475,127.815l-.051-.165-.084.026Z" fill="#fff"/>
              <path id="Trazado_221" data-name="Trazado 221" d="M-170.475,127.815l-.143-.1.051-.071Z" fill="#fff"/>
              <path id="Trazado_222" data-name="Trazado 222" d="M-170.682,127.815l.145-.1-.051-.071Z" fill="#fff"/>
              <path id="Trazado_223" data-name="Trazado 223" d="M-170.682,127.815l.057-.165.08.026Z" fill="#fff"/>
              <path id="Trazado_224" data-name="Trazado 224" d="M-167.383,127.087l-.039.134.064.021Z" fill="#fff"/>
              <path id="Trazado_225" data-name="Trazado 225" d="M-167.383,127.087l.047.134-.068.021Z" fill="#fff"/>
              <path id="Trazado_226" data-name="Trazado 226" d="M-167.246,127.186h-.141v.068Z" fill="#fff"/>
              <path id="Trazado_227" data-name="Trazado 227" d="M-167.246,127.186l-.115.082-.039-.057Z" fill="#fff"/>
              <path id="Trazado_228" data-name="Trazado 228" d="M-167.514,127.186l.113.082.039-.057Z" fill="#fff"/>
              <path id="Trazado_229" data-name="Trazado 229" d="M-167.514,127.186h.143v.068Z" fill="#fff"/>
              <path id="Trazado_230" data-name="Trazado 230" d="M-167.3,127.342l-.047-.134-.065.022Z" fill="#fff"/>
              <path id="Trazado_231" data-name="Trazado 231" d="M-167.3,127.342l-.115-.084.041-.057Z" fill="#fff"/>
              <path id="Trazado_232" data-name="Trazado 232" d="M-167.463,127.342l.113-.084-.041-.057Z" fill="#fff"/>
              <path id="Trazado_233" data-name="Trazado 233" d="M-167.463,127.342l.043-.134.066.022Z" fill="#fff"/>
              <path id="Trazado_234" data-name="Trazado 234" d="M-168.713,129.462l-.066.2.1.033Z" fill="#fff"/>
              <path id="Trazado_235" data-name="Trazado 235" d="M-168.713,129.462l.064.2-.1.033Z" fill="#fff"/>
              <path id="Trazado_236" data-name="Trazado 236" d="M-168.514,129.606h-.207v.105Z" fill="#fff"/>
              <path id="Trazado_237" data-name="Trazado 237" d="M-168.514,129.606l-.168.125-.061-.087Z" fill="#fff"/>
              <path id="Trazado_238" data-name="Trazado 238" d="M-168.912,129.606l.174.125.057-.087Z" fill="#fff"/>
              <path id="Trazado_239" data-name="Trazado 239" d="M-168.912,129.606h.209v.105Z" fill="#fff"/>
              <path id="Trazado_240" data-name="Trazado 240" d="M-168.59,129.842l-.062-.2-.1.031Z" fill="#fff"/>
              <path id="Trazado_241" data-name="Trazado 241" d="M-168.59,129.842l-.168-.124.059-.084Z" fill="#fff"/>
              <path id="Trazado_242" data-name="Trazado 242" d="M-168.836,129.842l.17-.124-.062-.084Z" fill="#fff"/>
              <path id="Trazado_243" data-name="Trazado 243" d="M-168.836,129.842l.064-.2.1.031Z" fill="#fff"/>
              <path id="Trazado_244" data-name="Trazado 244" d="M-168.145,128.525l-.055.166.084.025Z" fill="#fff"/>
              <path id="Trazado_245" data-name="Trazado 245" d="M-168.145,128.525l.055.166-.084.025Z" fill="#fff"/>
              <path id="Trazado_246" data-name="Trazado 246" d="M-167.981,128.646h-.176v.085Z" fill="#fff"/>
              <path id="Trazado_247" data-name="Trazado 247" d="M-167.981,128.646l-.142.1-.051-.07Z" fill="#fff"/>
              <path id="Trazado_248" data-name="Trazado 248" d="M-168.311,128.646l.141.1.051-.07Z" fill="#fff"/>
              <path id="Trazado_249" data-name="Trazado 249" d="M-168.311,128.646h.174v.085Z" fill="#fff"/>
              <path id="Trazado_250" data-name="Trazado 250" d="M-168.043,128.841l-.055-.167-.082.028Z" fill="#fff"/>
              <path id="Trazado_251" data-name="Trazado 251" d="M-168.043,128.841l-.141-.1.051-.071Z" fill="#fff"/>
              <path id="Trazado_252" data-name="Trazado 252" d="M-168.25,128.841l.143-.1-.051-.071Z" fill="#fff"/>
              <path id="Trazado_253" data-name="Trazado 253" d="M-168.25,128.841l.055-.167.084.028Z" fill="#fff"/>
              <path id="Trazado_254" data-name="Trazado 254" d="M-168.713,128.087l-.055.164.084.027Z" fill="#fff"/>
              <path id="Trazado_255" data-name="Trazado 255" d="M-168.713,128.087l.053.164-.078.027Z" fill="#fff"/>
              <path id="Trazado_256" data-name="Trazado 256" d="M-168.547,128.206h-.174v.088Z" fill="#fff"/>
              <path id="Trazado_257" data-name="Trazado 257" d="M-168.547,128.206l-.141.1-.051-.069Z" fill="#fff"/>
              <path id="Trazado_258" data-name="Trazado 258" d="M-168.877,128.206l.143.1.047-.069Z" fill="#fff"/>
              <path id="Trazado_259" data-name="Trazado 259" d="M-168.877,128.206h.174v.088Z" fill="#fff"/>
              <path id="Trazado_260" data-name="Trazado 260" d="M-168.609,128.4l-.053-.166-.084.025Z" fill="#fff"/>
              <path id="Trazado_261" data-name="Trazado 261" d="M-168.609,128.4l-.141-.1.051-.071Z" fill="#fff"/>
              <path id="Trazado_262" data-name="Trazado 262" d="M-168.815,128.4l.141-.1-.051-.071Z" fill="#fff"/>
              <path id="Trazado_263" data-name="Trazado 263" d="M-168.815,128.4l.053-.166.084.025Z" fill="#fff"/>
              <path id="Trazado_264" data-name="Trazado 264" d="M-169.207,128.56l-.043.134.068.021Z" fill="#fff"/>
              <path id="Trazado_265" data-name="Trazado 265" d="M-169.207,128.56l.047.134-.068.021Z" fill="#fff"/>
              <path id="Trazado_266" data-name="Trazado 266" d="M-169.072,128.656h-.139v.068Z" fill="#fff"/>
              <path id="Trazado_267" data-name="Trazado 267" d="M-169.072,128.656l-.113.082-.043-.058Z" fill="#fff"/>
              <path id="Trazado_268" data-name="Trazado 268" d="M-169.336,128.656l.111.082.039-.058Z" fill="#fff"/>
              <path id="Trazado_269" data-name="Trazado 269" d="M-169.336,128.656h.137v.068Z" fill="#fff"/>
              <path id="Trazado_270" data-name="Trazado 270" d="M-169.123,128.813l-.041-.133-.068.021Z" fill="#fff"/>
              <path id="Trazado_271" data-name="Trazado 271" d="M-169.123,128.813l-.111-.082.043-.057Z" fill="#fff"/>
              <path id="Trazado_272" data-name="Trazado 272" d="M-169.285,128.813l.111-.082-.041-.057Z" fill="#fff"/>
              <path id="Trazado_273" data-name="Trazado 273" d="M-169.285,128.813l.043-.133.064.021Z" fill="#fff"/>
              <path id="Trazado_274" data-name="Trazado 274" d="M-168.957,128.939l-.031.095.047.015Z" fill="#fff"/>
              <path id="Trazado_275" data-name="Trazado 275" d="M-168.957,128.939l.029.095-.047.015Z" fill="#fff"/>
              <path id="Trazado_276" data-name="Trazado 276" d="M-168.863,129.008h-.1v.05Z" fill="#fff"/>
              <path id="Trazado_277" data-name="Trazado 277" d="M-168.863,129.008l-.078.06-.029-.041Z" fill="#fff"/>
              <path id="Trazado_278" data-name="Trazado 278" d="M-169.055,129.008l.084.06.029-.041Z" fill="#fff"/>
              <path id="Trazado_279" data-name="Trazado 279" d="M-169.055,129.008h.1v.05Z" fill="#fff"/>
              <path id="Trazado_280" data-name="Trazado 280" d="M-168.9,129.121l-.029-.1-.047.015Z" fill="#fff"/>
              <path id="Trazado_281" data-name="Trazado 281" d="M-168.9,129.121l-.08-.06.033-.041Z" fill="#fff"/>
              <path id="Trazado_282" data-name="Trazado 282" d="M-169.018,129.121l.08-.06-.029-.041Z" fill="#fff"/>
              <path id="Trazado_283" data-name="Trazado 283" d="M-169.018,129.121l.033-.1.047.015Z" fill="#fff"/>
              <path id="Trazado_284" data-name="Trazado 284" d="M-167.246,130.595l-.055.167.084.028Z" fill="#fff"/>
              <path id="Trazado_285" data-name="Trazado 285" d="M-167.246,130.595l.055.167-.086.028Z" fill="#fff"/>
              <path id="Trazado_286" data-name="Trazado 286" d="M-167.082,130.715h-.174v.09Z" fill="#fff"/>
              <path id="Trazado_287" data-name="Trazado 287" d="M-167.082,130.715l-.141.1-.051-.072Z" fill="#fff"/>
              <path id="Trazado_288" data-name="Trazado 288" d="M-167.412,130.715l.139.1.055-.072Z" fill="#fff"/>
              <path id="Trazado_289" data-name="Trazado 289" d="M-167.412,130.715h.174v.09Z" fill="#fff"/>
              <path id="Trazado_290" data-name="Trazado 290" d="M-167.145,130.912l-.055-.167-.082.028Z" fill="#fff"/>
              <path id="Trazado_291" data-name="Trazado 291" d="M-167.145,130.912l-.141-.1.051-.07Z" fill="#fff"/>
              <path id="Trazado_292" data-name="Trazado 292" d="M-167.35,130.912l.141-.1-.051-.07Z" fill="#fff"/>
              <path id="Trazado_293" data-name="Trazado 293" d="M-167.35,130.912l.053-.167.084.028Z" fill="#fff"/>
              <path id="Trazado_294" data-name="Trazado 294" d="M-166.828,130.2l-.043.133.064.022Z" fill="#fff"/>
              <path id="Trazado_295" data-name="Trazado 295" d="M-166.828,130.2l.043.133-.068.022Z" fill="#fff"/>
              <path id="Trazado_296" data-name="Trazado 296" d="M-166.7,130.3h-.141v.066Z" fill="#fff"/>
              <path id="Trazado_297" data-name="Trazado 297" d="M-166.7,130.3l-.111.08-.043-.055Z" fill="#fff"/>
              <path id="Trazado_298" data-name="Trazado 298" d="M-166.963,130.3l.113.08.043-.055Z" fill="#fff"/>
              <path id="Trazado_299" data-name="Trazado 299" d="M-166.963,130.3h.143v.066Z" fill="#fff"/>
              <path id="Trazado_300" data-name="Trazado 300" d="M-166.746,130.45l-.043-.133-.064.022Z" fill="#fff"/>
              <path id="Trazado_301" data-name="Trazado 301" d="M-166.746,130.45l-.111-.082.041-.057Z" fill="#fff"/>
              <path id="Trazado_302" data-name="Trazado 302" d="M-166.908,130.45l.111-.082-.043-.057Z" fill="#fff"/>
              <path id="Trazado_303" data-name="Trazado 303" d="M-166.908,130.45l.043-.133.066.022Z" fill="#fff"/>
              <path id="Trazado_304" data-name="Trazado 304" d="M-167.633,130.078l-.043.132.064.023Z" fill="#fff"/>
              <path id="Trazado_305" data-name="Trazado 305" d="M-167.633,130.078l.043.132-.064.023Z" fill="#fff"/>
              <path id="Trazado_306" data-name="Trazado 306" d="M-167.5,130.174h-.139v.071Z" fill="#fff"/>
              <path id="Trazado_307" data-name="Trazado 307" d="M-167.5,130.174l-.113.084-.039-.059Z" fill="#fff"/>
              <path id="Trazado_308" data-name="Trazado 308" d="M-167.768,130.174l.113.084.039-.059Z" fill="#fff"/>
              <path id="Trazado_309" data-name="Trazado 309" d="M-167.768,130.174h.143v.071Z" fill="#fff"/>
              <path id="Trazado_310" data-name="Trazado 310" d="M-167.551,130.331l-.043-.133-.068.023Z" fill="#fff"/>
              <path id="Trazado_311" data-name="Trazado 311" d="M-167.551,130.331l-.115-.082.043-.056Z" fill="#fff"/>
              <path id="Trazado_312" data-name="Trazado 312" d="M-167.717,130.331l.113-.082-.041-.056Z" fill="#fff"/>
              <path id="Trazado_313" data-name="Trazado 313" d="M-167.717,130.331l.043-.133.07.023Z" fill="#fff"/>
              <path id="Trazado_314" data-name="Trazado 314" d="M-170.678,129.861l-.062.2.1.033Z" fill="#fff"/>
              <path id="Trazado_315" data-name="Trazado 315" d="M-170.678,129.861l.064.2-.1.033Z" fill="#fff"/>
              <path id="Trazado_316" data-name="Trazado 316" d="M-170.475,130.008h-.211v.1Z" fill="#fff"/>
              <path id="Trazado_317" data-name="Trazado 317" d="M-170.475,130.008l-.174.122-.059-.085Z" fill="#fff"/>
              <path id="Trazado_318" data-name="Trazado 318" d="M-170.879,130.008l.176.122.057-.085Z" fill="#fff"/>
              <path id="Trazado_319" data-name="Trazado 319" d="M-170.879,130.008h.211v.1Z" fill="#fff"/>
              <path id="Trazado_320" data-name="Trazado 320" d="M-170.555,130.241l-.062-.2-.1.031Z" fill="#fff"/>
              <path id="Trazado_321" data-name="Trazado 321" d="M-170.555,130.241l-.168-.123.059-.085Z" fill="#fff"/>
              <path id="Trazado_322" data-name="Trazado 322" d="M-170.8,130.241l.17-.123-.062-.085Z" fill="#fff"/>
              <path id="Trazado_323" data-name="Trazado 323" d="M-170.8,130.241l.068-.2.1.031Z" fill="#fff"/>
              <path id="Trazado_324" data-name="Trazado 324" d="M-168.713,131.232l-.021.067.031.011Z" fill="#fff"/>
              <path id="Trazado_325" data-name="Trazado 325" d="M-168.713,131.232l.021.067-.029.011Z" fill="#fff"/>
              <path id="Trazado_326" data-name="Trazado 326" d="M-168.645,131.282h-.072v.034Z" fill="#fff"/>
              <path id="Trazado_327" data-name="Trazado 327" d="M-168.645,131.282l-.059.041-.018-.029Z" fill="#fff"/>
              <path id="Trazado_328" data-name="Trazado 328" d="M-168.779,131.282l.059.041.018-.029Z" fill="#fff"/>
              <path id="Trazado_329" data-name="Trazado 329" d="M-168.779,131.282h.068v.034Z" fill="#fff"/>
              <path id="Trazado_330" data-name="Trazado 330" d="M-168.674,131.359l-.018-.066-.033.012Z" fill="#fff"/>
              <path id="Trazado_331" data-name="Trazado 331" d="M-168.674,131.359l-.055-.04.018-.027Z" fill="#fff"/>
              <path id="Trazado_332" data-name="Trazado 332" d="M-168.754,131.359l.055-.04-.018-.027Z" fill="#fff"/>
              <path id="Trazado_333" data-name="Trazado 333" d="M-168.754,131.359l.023-.066.031.012Z" fill="#fff"/>
            </g>
          </g>
        </g>
      </g>
    </g>
  </g>
</svg>
