<svg xmlns="http://www.w3.org/2000/svg" xmlns:xlink="http://www.w3.org/1999/xlink" width="33.564" height="19.578" viewBox="0 0 33.564 19.578">
  <defs>
    <clipPath id="clip-path">
      <rect id="Rectángulo_182" data-name="Rectángulo 182" width="33.564" height="19.578" transform="translate(-112.681 189.959)" fill="none"/>
    </clipPath>
  </defs>
  <g id="USA" transform="translate(112.681 -189.959)">
    <g id="Grupo_117" data-name="Grupo 117">
      <g id="Grupo_116" data-name="Grupo 116">
        <g id="Grupo_115" data-name="Grupo 115" clip-path="url(#clip-path)">
          <rect id="Rectángulo_168" data-name="Rectángulo 168" width="33.564" height="1.506" transform="translate(-112.681 208.032)" fill="#cb001c"/>
          <rect id="Rectángulo_169" data-name="Rectángulo 169" width="33.564" height="1.506" transform="translate(-112.681 206.526)" fill="#fff"/>
          <rect id="Rectángulo_170" data-name="Rectángulo 170" width="33.564" height="1.505" transform="translate(-112.681 205.021)" fill="#cb001c"/>
          <rect id="Rectángulo_171" data-name="Rectángulo 171" width="33.564" height="1.506" transform="translate(-112.681 203.515)" fill="#fff"/>
          <rect id="Rectángulo_172" data-name="Rectángulo 172" width="33.564" height="1.507" transform="translate(-112.681 202.008)" fill="#cb001c"/>
          <rect id="Rectángulo_173" data-name="Rectángulo 173" width="33.564" height="1.505" transform="translate(-112.681 200.503)" fill="#fff"/>
          <rect id="Rectángulo_174" data-name="Rectángulo 174" width="33.564" height="1.508" transform="translate(-112.681 198.996)" fill="#cb001c"/>
          <rect id="Rectángulo_175" data-name="Rectángulo 175" width="33.564" height="1.505" transform="translate(-112.681 197.491)" fill="#fff"/>
          <rect id="Rectángulo_176" data-name="Rectángulo 176" width="33.564" height="1.506" transform="translate(-112.681 195.985)" fill="#cb001c"/>
          <rect id="Rectángulo_177" data-name="Rectángulo 177" width="33.564" height="1.507" transform="translate(-112.681 194.478)" fill="#fff"/>
          <rect id="Rectángulo_178" data-name="Rectángulo 178" width="33.564" height="1.506" transform="translate(-112.681 192.972)" fill="#cb001c"/>
          <rect id="Rectángulo_179" data-name="Rectángulo 179" width="33.564" height="1.506" transform="translate(-112.681 191.466)" fill="#fff"/>
          <rect id="Rectángulo_180" data-name="Rectángulo 180" width="33.564" height="1.507" transform="translate(-112.681 189.959)" fill="#cb001c"/>
          <rect id="Rectángulo_181" data-name="Rectángulo 181" width="15.328" height="10.544" transform="translate(-112.681 189.959)" fill="#2a3560"/>
          <path id="Trazado_344" data-name="Trazado 344" d="M-111.3,191.121l.131.4h.42l-.34.246.129.4-.34-.246-.34.246.133-.4-.34-.246h.416Z" fill="#fff"/>
          <path id="Trazado_345" data-name="Trazado 345" d="M-111.3,192.882l.131.4h.42l-.34.245.129.4-.34-.247-.34.247.133-.4-.34-.245h.416Z" fill="#fff"/>
          <path id="Trazado_346" data-name="Trazado 346" d="M-111.3,194.642l.131.4h.42l-.34.246.129.4-.34-.247-.34.247.133-.4-.34-.246h.416Z" fill="#fff"/>
          <path id="Trazado_347" data-name="Trazado 347" d="M-111.3,196.4l.131.4h.42l-.34.246.129.4-.34-.245-.34.245.133-.4-.34-.246h.416Z" fill="#fff"/>
          <path id="Trazado_348" data-name="Trazado 348" d="M-111.3,198.161l.131.4h.42l-.34.244.129.4-.34-.246-.34.246.133-.4-.34-.244h.416Z" fill="#fff"/>
          <path id="Trazado_349" data-name="Trazado 349" d="M-110.069,192.048l.125.4h.422l-.338.247.127.4-.336-.245-.338.245.127-.4-.338-.247h.42Z" fill="#fff"/>
          <path id="Trazado_350" data-name="Trazado 350" d="M-110.069,193.809l.125.4h.422l-.338.247.127.4-.336-.244-.338.244.127-.4-.338-.247h.42Z" fill="#fff"/>
          <path id="Trazado_351" data-name="Trazado 351" d="M-110.069,195.569l.125.4h.422l-.338.246.127.4-.336-.246-.338.246.127-.4-.338-.246h.42Z" fill="#fff"/>
          <path id="Trazado_352" data-name="Trazado 352" d="M-110.069,197.329l.125.4h.422l-.338.246.127.4-.336-.247-.338.247.127-.4-.338-.246h.42Z" fill="#fff"/>
          <path id="Trazado_353" data-name="Trazado 353" d="M-108.831,191.121l.131.4h.42l-.34.246.131.4-.342-.246-.336.246.129-.4-.34-.246h.418Z" fill="#fff"/>
          <path id="Trazado_354" data-name="Trazado 354" d="M-108.831,192.882l.131.4h.42l-.34.245.131.4-.342-.247-.336.247.129-.4-.34-.245h.418Z" fill="#fff"/>
          <path id="Trazado_355" data-name="Trazado 355" d="M-108.831,194.642l.131.4h.42l-.34.246.131.4-.342-.247-.336.247.129-.4-.34-.246h.418Z" fill="#fff"/>
          <path id="Trazado_356" data-name="Trazado 356" d="M-108.831,196.4l.131.4h.42l-.34.246.131.4-.342-.245-.336.245.129-.4-.34-.246h.418Z" fill="#fff"/>
          <path id="Trazado_357" data-name="Trazado 357" d="M-108.831,198.161l.131.4h.42l-.34.244.131.4-.342-.246-.336.246.129-.4-.34-.244h.418Z" fill="#fff"/>
          <path id="Trazado_358" data-name="Trazado 358" d="M-107.6,192.048l.129.4h.422l-.342.247.131.4-.34-.245-.338.245.131-.4-.342-.247h.42Z" fill="#fff"/>
          <path id="Trazado_359" data-name="Trazado 359" d="M-107.6,193.809l.129.4h.422l-.342.247.131.4-.34-.244-.338.244.131-.4-.342-.247h.42Z" fill="#fff"/>
          <path id="Trazado_360" data-name="Trazado 360" d="M-107.6,195.569l.129.4h.422l-.342.246.131.4-.34-.246-.338.246.131-.4-.342-.246h.42Z" fill="#fff"/>
          <path id="Trazado_361" data-name="Trazado 361" d="M-107.6,197.329l.129.4h.422l-.342.246.131.4-.34-.247-.338.247.131-.4-.342-.246h.42Z" fill="#fff"/>
          <path id="Trazado_362" data-name="Trazado 362" d="M-106.362,191.121l.131.4h.416l-.34.246.135.4-.342-.246-.34.246.129-.4-.336-.246h.418Z" fill="#fff"/>
          <path id="Trazado_363" data-name="Trazado 363" d="M-106.362,192.882l.131.4h.416l-.34.245.135.4-.342-.247-.34.247.129-.4-.336-.245h.418Z" fill="#fff"/>
          <path id="Trazado_364" data-name="Trazado 364" d="M-106.362,194.642l.131.4h.416l-.34.246.135.4-.342-.247-.34.247.129-.4-.336-.246h.418Z" fill="#fff"/>
          <path id="Trazado_365" data-name="Trazado 365" d="M-106.362,196.4l.131.4h.416l-.34.246.135.4-.342-.245-.34.245.129-.4-.336-.246h.418Z" fill="#fff"/>
          <path id="Trazado_366" data-name="Trazado 366" d="M-106.362,198.161l.131.4h.416l-.34.244.135.4-.342-.246-.34.246.129-.4-.336-.244h.418Z" fill="#fff"/>
          <path id="Trazado_367" data-name="Trazado 367" d="M-105.136,192.048l.129.4h.418l-.338.247.127.4-.336-.245-.338.245.127-.4-.338-.247h.418Z" fill="#fff"/>
          <path id="Trazado_368" data-name="Trazado 368" d="M-105.136,193.809l.129.4h.418l-.338.247.127.4-.336-.244-.338.244.127-.4-.338-.247h.418Z" fill="#fff"/>
          <path id="Trazado_369" data-name="Trazado 369" d="M-105.136,195.569l.129.4h.418l-.338.246.127.4-.336-.246-.338.246.127-.4-.338-.246h.418Z" fill="#fff"/>
          <path id="Trazado_370" data-name="Trazado 370" d="M-105.136,197.329l.129.4h.418l-.338.246.127.4-.336-.247-.338.247.127-.4-.338-.246h.418Z" fill="#fff"/>
          <path id="Trazado_371" data-name="Trazado 371" d="M-103.9,191.121l.131.4h.418l-.338.246.131.4-.342-.246-.336.246.127-.4-.338-.246h.418Z" fill="#fff"/>
          <path id="Trazado_372" data-name="Trazado 372" d="M-103.9,192.882l.131.4h.418l-.338.245.131.4-.342-.247-.336.247.127-.4-.338-.245h.418Z" fill="#fff"/>
          <path id="Trazado_373" data-name="Trazado 373" d="M-103.9,194.642l.131.4h.418l-.338.246.131.4-.342-.247-.336.247.127-.4-.338-.246h.418Z" fill="#fff"/>
          <path id="Trazado_374" data-name="Trazado 374" d="M-103.9,196.4l.131.4h.418l-.338.246.131.4-.342-.245-.336.245.127-.4-.338-.246h.418Z" fill="#fff"/>
          <path id="Trazado_375" data-name="Trazado 375" d="M-103.9,198.161l.131.4h.418l-.338.244.131.4-.342-.246-.336.246.127-.4-.338-.244h.418Z" fill="#fff"/>
          <path id="Trazado_376" data-name="Trazado 376" d="M-102.671,192.048l.129.4h.422l-.34.247.129.4-.34-.245-.338.245.131-.4-.34-.247h.42Z" fill="#fff"/>
          <path id="Trazado_377" data-name="Trazado 377" d="M-102.671,193.809l.129.4h.422l-.34.247.129.4-.34-.244-.338.244.131-.4-.34-.247h.42Z" fill="#fff"/>
          <path id="Trazado_378" data-name="Trazado 378" d="M-102.671,195.569l.129.4h.422l-.34.246.129.4-.34-.246-.338.246.131-.4-.34-.246h.42Z" fill="#fff"/>
          <path id="Trazado_379" data-name="Trazado 379" d="M-102.671,197.329l.129.4h.422l-.34.246.129.4-.34-.247-.338.247.131-.4-.34-.246h.42Z" fill="#fff"/>
          <path id="Trazado_380" data-name="Trazado 380" d="M-101.429,191.121l.131.4h.418l-.338.246.127.4-.338-.246-.336.246.127-.4-.338-.246h.418Z" fill="#fff"/>
          <path id="Trazado_381" data-name="Trazado 381" d="M-101.429,192.882l.131.4h.418l-.338.245.127.4-.338-.247-.336.247.127-.4-.338-.245h.418Z" fill="#fff"/>
          <path id="Trazado_382" data-name="Trazado 382" d="M-101.429,194.642l.131.4h.418l-.338.246.127.4-.338-.247-.336.247.127-.4-.338-.246h.418Z" fill="#fff"/>
          <path id="Trazado_383" data-name="Trazado 383" d="M-101.429,196.4l.131.4h.418l-.338.246.127.4-.338-.245-.336.245.127-.4-.338-.246h.418Z" fill="#fff"/>
          <path id="Trazado_384" data-name="Trazado 384" d="M-101.429,198.161l.131.4h.418l-.338.244.127.4-.338-.246-.336.246.127-.4-.338-.244h.418Z" fill="#fff"/>
          <path id="Trazado_385" data-name="Trazado 385" d="M-100.2,192.048l.127.4h.42l-.336.247.125.4-.336-.245-.342.245.131-.4-.336-.247h.416Z" fill="#fff"/>
          <path id="Trazado_386" data-name="Trazado 386" d="M-100.2,193.809l.127.4h.42l-.336.247.125.4-.336-.244-.342.244.131-.4-.336-.247h.416Z" fill="#fff"/>
          <path id="Trazado_387" data-name="Trazado 387" d="M-100.2,195.569l.127.4h.42l-.336.246.125.4-.336-.246-.342.246.131-.4-.336-.246h.416Z" fill="#fff"/>
          <path id="Trazado_388" data-name="Trazado 388" d="M-100.2,197.329l.127.4h.42l-.336.246.125.4-.336-.247-.342.247.131-.4-.336-.246h.416Z" fill="#fff"/>
          <path id="Trazado_389" data-name="Trazado 389" d="M-98.964,191.121l.133.4h.416l-.338.246.131.4-.342-.246-.336.246.127-.4-.338-.246h.418Z" fill="#fff"/>
          <path id="Trazado_390" data-name="Trazado 390" d="M-98.964,192.882l.133.4h.416l-.338.245.131.4-.342-.247-.336.247.127-.4-.338-.245h.418Z" fill="#fff"/>
          <path id="Trazado_391" data-name="Trazado 391" d="M-98.964,194.642l.133.4h.416l-.338.246.131.4-.342-.247-.336.247.127-.4-.338-.246h.418Z" fill="#fff"/>
          <path id="Trazado_392" data-name="Trazado 392" d="M-98.964,196.4l.133.4h.416l-.338.246.131.4-.342-.245-.336.245.127-.4-.338-.246h.418Z" fill="#fff"/>
          <path id="Trazado_393" data-name="Trazado 393" d="M-98.964,198.161l.133.4h.416l-.338.244.131.4-.342-.246-.336.246.127-.4-.338-.244h.418Z" fill="#fff"/>
        </g>
      </g>
    </g>
  </g>
</svg>
